<svg xmlns="http://www.w3.org/2000/svg" viewBox="0 0 24 24" width="24" height="24"><style>path { fill: #24292f; } @media (prefers-color-scheme: dark) { path { fill: #c9d1d9; } }</style><path d="M5 21a4 4 0 0 1-4-4c0-1.47.8-2.75 2-3.46V8.46C1.8 7.75 1 6.47 1 5a4 4 0 1 1 8 0c0 .92-.32 1.76-.84 2.45l2.42 2.42c1.47-.56 3.12-.56 4.6 0a4 4 0 1 1 0-5.74V2h2v4.46c1.2.71 2 1.99 2 3.46a4 4 0 1 1-8 0c0-.85.27-1.63.73-2.27l-2.42-2.43c-.41 1.25-.41 2.6 0 3.84V17.54C6.2 18.25 7 19.53 7 21a2 2 0 0 1-4 0Zm0-15a2 2 0 1 0-4 0 2 2 0 0 0 4 0Zm12 4a2 2 0 1 0 0-4 2 2 0 0 0 0 4ZM5 19a2 2 0 1 0 0-4 2 2 0 0 0 0 4Z"></path></svg>