<svg xmlns="http://www.w3.org/2000/svg" viewBox="0 0 24 24" width="24" height="24"><style>path { fill: #24292f; } @media (prefers-color-scheme: dark) { path { fill: #c9d1d9; } }</style><path d="M11.643 1.057a1.75 1.75 0 0 1 1.964.717l4.316 6.474a2.76 2.76 0 0 0 1.258 1.026l3.784 1.514a1.75 1.75 0 0 1 .536 2.871l-3.352 3.353a4.26 4.26 0 0 0-1.121 1.954l-1.047 3.55a1.75 1.75 0 0 1-3.21.439l-2.008-3.013a2.762 2.762 0 0 0-1.427-1.117l-3.64-1.092a1.75 1.75 0 0 1-.72-2.915l3.242-3.243a4.26 4.26 0 0 0 1.121-1.954l1.047-3.55a1.75 1.75 0 0 1 1.257-1.014ZM7.785 16.4l-3.23.97a.25.25 0 0 0-.103.416l2.943 2.943a.25.25 0 0 0 .393-.112l1.62-5.512a2.76 2.76 0 0 0-.726-1.266L5.438 10.6a.25.25 0 0 0-.416.103l.97 3.23a4.26 4.26 0 0 1 .517 3.12l-1.62 5.513c-.158.536.46 1.002.89.674l2.148-1.611a2.76 2.76 0 0 0 1.116-2.181v-.154l-1.258-2.894Zm5.257-2.738L10.5 10.6l3.161-3.16a.25.25 0 0 1 .353 0L17.176 10.6l-4.134 3.062ZM22 13.5v6.25a.75.75 0 0 1-1.5 0V13.5a.75.75 0 0 1 1.5 0Z"></path></svg>